<svg xmlns="http://www.w3.org/2000/svg" viewBox="0 0 200 200" width="100%" height="100%">
  <defs>
    <radialGradient id="logo-bg" cx="50%" cy="50%" r="50%">
      <stop offset="0%" stop-color="#8C2D19" />
      <stop offset="100%" stop-color="#541308" />
    </radialGradient>
    <linearGradient id="gold-grad" x1="0%" y1="0%" x2="100%" y2="100%">
      <stop offset="0%" stop-color="#FFEFA6" />
      <stop offset="50%" stop-color="#D49B41" />
      <stop offset="100%" stop-color="#9C6718" />
    </linearGradient>
  </defs>
  <circle cx="100" cy="100" r="90" fill="url(#logo-bg)" stroke="url(#gold-grad)" stroke-width="4" />
  <circle cx="100" cy="100" r="82" fill="none" stroke="url(#gold-grad)" stroke-width="1" stroke-dasharray="4 4" />
  <path d="M 60,115 C 60,140 140,140 140,115 Z" fill="none" stroke="url(#gold-grad)" stroke-width="4" stroke-linecap="round" />
  <line x1="50" y1="115" x2="150" y2="115" stroke="url(#gold-grad)" stroke-width="4" stroke-linecap="round" />
  <path d="M 85,95 Q 90,85 85,75 T 90,65" fill="none" stroke="url(#gold-grad)" stroke-width="2" stroke-linecap="round" opacity="0.8" />
  <path d="M 100,95 Q 105,80 100,70 T 105,55" fill="none" stroke="url(#gold-grad)" stroke-width="3" stroke-linecap="round" opacity="0.9" />
  <path d="M 115,95 Q 120,85 115,75 T 120,65" fill="none" stroke="url(#gold-grad)" stroke-width="2" stroke-linecap="round" opacity="0.8" />
  <path d="M 80,145 Q 100,155 120,145 Q 100,138 80,145" fill="url(#gold-grad)" />
  <text x="100" y="110" font-family="'Noto Serif TC', 'Georgia', serif" font-weight="bold" font-size="22" fill="#FAF7F2" text-anchor="middle" letter-spacing="2">川魚堂</text>
  <text x="100" y="172" font-family="'Noto Sans TC', sans-serif" font-size="9" fill="url(#gold-grad)" text-anchor="middle" letter-spacing="1">藥膳火鍋 • 深夜食堂</text>
</svg>
